PathFileType	4	(X/Y/Z)	Run_300 01
DataRate	CameraRate	NumFrames	NumMarkers	Units	OrigDataRate	OrigDataStartFrame	OrigNumFrames
120	120	4	42	mm	120	401	128
Frame#	Time	LASI			LPSI			RPSI			RTH1			RTH2			RTH3			LTH1			LTH2			LTH3			RTB1			RTB2			RTB3			LTB1			LTB2			RCAL			RTOE			RMT5			LCAL			LMT5			LACR			RACR			CLAV			C7			RUA1			RUA2			RUA3			RLEL			RMEL			LUA1			LUA2			LUA3			LLEL			LMEL			RFAsuperior			RFAradius			RFAulna			LFAsuperior			LFAradius			LFAulna			LTB3			LTOE			RASI		
		X1	Y1	Z1	X2	Y2	Z2	X3	Y3	Z3	X4	Y4	Z4	X5	Y5	Z5	X6	Y6	Z6	X7	Y7	Z7	X8	Y8	Z8	X9	Y9	Z9	X10	Y10	Z10	X11	Y11	Z11	X12	Y12	Z12	X13	Y13	Z13	X14	Y14	Z14	X15	Y15	Z15	X16	Y16	Z16	X17	Y17	Z17	X18	Y18	Z18	X19	Y19	Z19	X20	Y20	Z20	X21	Y21	Z21	X22	Y22	Z22	X23	Y23	Z23	X24	Y24	Z24	X25	Y25	Z25	X26	Y26	Z26	X27	Y27	Z27	X28	Y28	Z28	X29	Y29	Z29	X30	Y30	Z30	X31	Y31	Z31	X32	Y32	Z32	X33	Y33	Z33	X34	Y34	Z34	X35	Y35	Z35	X36	Y36	Z36	X37	Y37	Z37	X38	Y38	Z38	X39	Y39	Z39	X40	Y40	Z40	X41	Y41	Z41	X42	Y42	Z42	

401	  3.341667	796.257246	981.718281	-503.228177	630.373639	996.749739	-403.819018	638.383431	993.381004	-319.873286	824.425032	799.354231	-211.799857	935.059891	718.275885	-236.310819	915.666852	586.188838	-216.752714	754.655022	837.891682	-548.144323	813.967937	725.333975	-534.512413	753.246350	583.483295	-519.693182	849.146446	436.108889	-273.345437	779.324234	464.225184	-219.455604	671.634257	422.566980	-281.820905	765.830045	345.249400	-430.838588	681.290213	260.683281	-468.623537	528.152088	510.988170	-284.139980	527.016416	291.472952	-281.186412	507.327439	324.897752	-194.473647	498.828552	111.716401	-380.440657	682.507559	 59.065544	-462.669497	779.453639	1403.239347	-573.551467	795.701712	1423.857610	-189.058765	885.578746	1380.300272	-355.713268	755.171533	1475.963711	-386.741124	749.504565	1322.534071	-127.449077	747.689676	1251.013543	-130.317243	649.848675	1263.653609	-93.329849	660.385178	1171.539268	-57.592812	601.972569	1165.961468	-123.214586	750.443219	1326.571884	-625.790725	699.597553	1250.115579	-607.314641	740.782038	1241.019890	-669.895585	735.384563	1140.678751	-721.183730	715.406529	1081.246833	-657.391395	728.586278	1130.049997	-91.221961	841.183095	1072.497691	-204.085887	798.970786	1020.450544	-186.584168	805.476971	1161.947879	-706.706111	938.228352	1191.305214	-594.828258	960.268152	1142.085210	-635.602377	662.283859	189.667963	-387.822266	713.179740	 71.543342	-376.419960	812.518208	976.046547	-249.374082	
402	  3.350000	795.786997	983.816093	-507.879746	630.811294	1001.682176	-404.880415	638.855894	999.281251	-320.691012	828.323409	807.861252	-212.923058	940.739755	729.799582	-238.174159	926.009807	597.822960	-218.455077	749.622431	840.286365	-547.995926	805.154088	726.301331	-533.668049	737.930423	586.463429	-518.321299	866.154025	441.554395	-275.321626	794.430654	465.538144	-221.389409	690.235469	415.380419	-282.730552	743.801006	347.163225	-430.013943	658.087535	263.987397	-468.365076	539.273451	493.622395	-286.351359	557.605569	275.314732	-282.635432	534.308252	307.164703	-195.358284	474.760324	115.455055	-381.473188	657.145038	 59.173411	-462.530016	783.536021	1408.420667	-572.807778	791.203812	1429.490353	-188.565320	885.248590	1385.814650	-352.776750	755.631296	1481.148939	-386.600717	742.030601	1329.826383	-127.316586	739.653948	1258.527093	-128.680089	640.460287	1272.030371	-95.956088	648.493348	1180.146498	-59.260206	592.743521	1175.218293	-127.337070	756.409764	1331.048355	-625.016266	704.599540	1254.856605	-606.949550	748.072585	1244.666708	-667.844091	744.234471	1143.616914	-718.101901	722.599857	1085.399606	-653.808065	717.773936	1138.637100	-89.819040	834.423865	1081.048897	-197.990275	791.312468	1029.006578	-183.184560	814.163139	1164.748917	-702.339136	945.033164	1194.952551	-588.289148	967.808917	1144.586699	-627.373026	638.733031	192.274469	-388.017704	688.373351	 71.584001	-376.963777	812.619092	981.947181	-249.401070	
403	  3.358333	795.916076	986.386073	-513.280111	631.401333	1007.000257	-405.774273	639.665902	1005.674989	-321.304436	832.292717	817.121521	-213.942775	945.728587	741.381417	-240.118575	935.137716	609.263042	-220.323067	745.529563	843.316390	-547.738887	796.756484	727.917765	-532.550049	722.463106	590.689891	-516.526067	882.582099	447.045863	-277.547231	808.999458	466.168893	-223.515295	708.804056	407.533983	-283.917973	721.806317	350.280142	-428.912158	635.208298	268.395919	-468.093277	551.468607	474.404518	-289.463053	589.391448	258.878470	-284.070423	562.705726	289.450981	-196.321137	451.504127	120.730277	-383.005425	631.752949	 59.257398	-462.199369	787.780187	1414.666493	-571.783897	786.540665	1435.936179	-188.353396	884.843934	1392.150032	-349.698893	755.914561	1486.870269	-386.309212	734.810816	1338.156850	-127.262666	732.004390	1266.954022	-127.241130	631.678003	1281.347770	-98.402511	637.701204	1190.055927	-60.971481	584.003324	1185.051619	-131.001431	762.458128	1336.818069	-624.207181	709.500026	1261.129473	-607.020092	755.523021	1249.814199	-666.105864	752.416126	1148.277471	-715.338207	727.775942	1091.319592	-650.818579	707.924627	1148.879624	-89.186142	827.946160	1090.905722	-192.257681	784.326014	1038.831657	-179.700358	822.059921	1168.866435	-697.807838	950.673209	1199.244951	-581.376955	973.805586	1147.631630	-618.700852	615.772518	195.823267	-388.813918	663.775630	 72.046996	-377.401429	813.070627	988.520879	-249.037955	
404	  3.366667	796.457725	989.623124	-518.089064	632.378173	1012.643459	-406.692850	640.645090	1012.414731	-321.944213	836.157925	826.823675	-214.834767	950.086124	752.955747	-242.105161	943.002047	620.267076	-222.220040	742.223426	846.927688	-547.464027	788.743468	730.181732	-531.301081	707.434127	596.073215	-514.637356	898.305054	452.321366	-279.893186	823.139011	465.914227	-225.786771	727.459937	399.298921	-285.672106	700.206021	354.798619	-427.875507	613.008775	274.200029	-468.231362	565.012575	453.551373	-293.235069	622.161938	242.243342	-285.214782	592.506207	271.822498	-197.540111	429.322156	127.637113	-385.008746	606.361014	 59.325138	-461.802842	792.147765	1421.727825	-570.544031	781.885340	1442.942202	-188.378135	884.335456	1399.149321	-346.549918	756.074299	1492.984991	-385.899811	728.009558	1347.223487	-127.306262	724.894990	1275.992932	-126.045819	623.522549	1291.354213	-100.728365	627.931038	1200.787251	-62.589014	575.880520	1195.242808	-134.244745	768.440835	1343.641675	-623.394736	714.246427	1268.666052	-607.727487	762.919726	1256.196042	-664.746541	759.811402	1154.328543	-713.054131	731.314474	1098.607865	-648.583329	698.928066	1160.052978	-88.925450	821.725427	1101.388675	-186.958211	777.947456	1049.261762	-176.052774	829.092965	1174.081787	-693.475679	955.064090	1203.959214	-574.271115	978.141112	1151.215262	-609.902846	593.817367	200.457495	-390.450019	639.467014	 72.931793	-377.613243	813.733592	995.524579	-248.550769	
